PathFileType	4	(X/Y/Z)	Kaydara																																																																																																																									
DataRate	CameraRate	NumFrames	NumMarkers	Units	OrigDataRate	OrigDataStartFrame	OrigNumFrames																																																																																																																					
30	30	8	41	mm	30	91	145																																																																																																																					
Frame#	Time	NABA_LFHD			NABA_RFHD			NABA_LBHD			NABA_RBHD			NABA_LFTShould			NABA_RFTShould			NABA_LRRShould			NABA_RRRShould			NABA_T10			NABA_STRN			NABA_TRUN			NABA_LSHO			NABA_LUPA			NABA_LELB			NABA_LFRM			NABA_LWRA			NABA_LWRB			NABA_LFIN			NABA_RSHO			NABA_RUPA			NABA_RELB			NABA_RFRM			NABA_RWRA			NABA_RWRB			NABA_RFIN			NABA_LFWT			NABA_RFWT			NABA_LBWT			NABA_RBWT			NABA_LTHI			NABA_LKNE			NABA_LSHN			NABA_LANK			NABA_LHEE			NABA_LTOE			NABA_RTHI			NABA_RKNE			NABA_RSHN			NABA_RANK			NABA_RHEE			NABA_RTOE		
		X1	Y1	Z1	X2	Y2	Z2	X3	Y3	Z3	X4	Y4	Z4	X5	Y5	Z5	X6	Y6	Z6	X7	Y7	Z7	X8	Y8	Z8	X9	Y9	Z9	X10	Y10	Z10	X11	Y11	Z11	X12	Y12	Z12	X13	Y13	Z13	X14	Y14	Z14	X15	Y15	Z15	X16	Y16	Z16	X17	Y17	Z17	X18	Y18	Z18	X19	Y19	Z19	X20	Y20	Z20	X21	Y21	Z21	X22	Y22	Z22	X23	Y23	Z23	X24	Y24	Z24	X25	Y25	Z25	X26	Y26	Z26	X27	Y27	Z27	X28	Y28	Z28	X29	Y29	Z29	X30	Y30	Z30	X31	Y31	Z31	X32	Y32	Z32	X33	Y33	Z33	X34	Y34	Z34	X35	Y35	Z35	X36	Y36	Z36	X37	Y37	Z37	X38	Y38	Z38	X39	Y39	Z39	X40	Y40	Z40	X41	Y41	Z41
																																																																																																																												
91	3.01	254.81411	1568.28934	-165.58727	82.2137	1572.25449	-155.03805	274.89014	1541.6922	-287.89536	55.0523	1563.69553	-253.36733	225.41552	1318.3551	-212.91996	84.02142	1296.53595	-210.23218	225.12835	1376.3443	-323.09994	80.27723	1371.15723	-311.7342	165.5405	1216.39748	-404.46548	166.47732	1260.5233	-164.33874	170.79485	1159.44298	-124.76807	321.00765	1341.38443	-262.86184	391.31157	1151.27975	-349.01291	429.81133	1065.11246	-346.53622	415.45147	1014.48479	-271.21796	327.1645	1092.32445	-142.34871	398.4388	1086.57913	-121.7501	367.02789	1134.52858	-81.07243	5.48687	1329.90051	-249.07545	-31.26192	1180.48195	-379.77962	-104.43286	1057.16393	-389.57481	-98.33753	995.69374	-293.56899	-15.71569	1018.70888	-158.36729	-90.15649	1010.61966	-139.8569	-65.13422	1027.93091	-98.50657	299.01495	929.73053	-233.07781	32.65524	926.26991	-225.24446	246.62176	980.8313	-396.84128	72.85048	1012.39708	-394.17316	310.34821	631.45611	-352.9195	311.62807	484.78645	-281.42773	253.39426	308.96046	-370.33531	278.223	252.00314	-526.87275	219.98554	260.80013	-596.20575	246.62174	100.28757	-512.84096	38.30699	639.75018	-346.17851	66.6612	490.45418	-217.84826	82.50986	323.29395	-211.19854	86.14498	123.73537	-237.35025	129.97719	71.45406	-293.19874	111.61139	63.19133	-113.22582
92	3.043	256.89817	1567.19727	-104.12238	84.76122	1571.45493	-90.84088	275.10098	1541.96381	-227.03951	55.91484	1564.19495	-188.79534	227.61593	1316.25107	-156.63092	86.68658	1295.35904	-149.83321	222.01433	1379.39056	-264.50756	77.92775	1374.01672	-248.28278	159.45225	1221.66023	-348.899	170.65104	1257.42905	-107.2037	175.91282	1155.00938	-71.52863	317.43881	1345.37247	-208.83312	379.70478	1152.73796	-292.63855	419.11903	1059.62318	-292.88595	396.31638	1026.24283	-208.30914	309.91255	1140.40451	-109.48388	378.03257	1133.44925	-81.84225	352.65018	1195.26054	-61.77907	8.68357	1330.64163	-180.92491	-42.69029	1172.18979	-299.92155	-116.4054	1045.85518	-294.75426	-91.06565	1030.18471	-183.95815	5.2982	1086.0244	-67.83636	-59.09541	1113.75061	-59.33991	-30.86123	1147.86377	-35.24901	298.09113	929.14368	-188.58145	30.8718	922.06909	-177.86503	238.97453	980.83305	-354.02512	68.48214	1015.504	-345.8115	307.83716	630.56732	-272.88675	303.79671	493.93452	-184.18816	251.4942	309.19867	-251.36227	281.58922	229.29785	-397.46777	226.11099	223.30866	-470.97946	251.1129	93.72954	-350.29896	36.0918	643.74802	-310.48889	67.84708	489.52877	-190.06357	84.22814	321.28315	-193.7574	88.55725	123.50184	-231.03729	132.9467	74.77	-289.81129	113.46704	61.93187	-111.08921
93	3.077	257.04699	1562.80258	-43.06186	85.09245	1565.13123	-28.77601	274.63137	1541.32935	-166.73471	55.54317	1560.58929	-126.71083	230.13636	1308.22708	-103.09801	90.45562	1289.45984	-91.94918	220.25593	1380.24323	-207.37823	76.40223	1373.28934	-190.76315	153.38407	1222.78236	-296.72701	175.41502	1246.29417	-54.19639	181.52431	1143.2872	-21.28202	317.04134	1340.18204	-154.58682	375.39394	1144.84627	-249.7953	407.4836	1053.04123	-251.95133	387.27184	1008.22174	-172.42832	309.66908	1107.01385	-49.04482	380.4985	1091.84448	-28.64953	358.75275	1148.899	5.00473	15.91776	1328.01666	-116.7528	-43.4245	1150.57625	-227.90842	-112.72904	1030.46959	-206.24191	-81.54995	1035.03067	-94.84355	14.27531	1104.19395	6.41469	-48.19851	1136.6629	11.51696	-28.69593	1176.92207	25.08157	294.51405	927.69943	-139.71374	26.41699	922.1122	-130.33278	234.24669	981.91177	-307.45584	68.05368	1016.04767	-297.07748	301.24002	633.08605	-199.04406	294.31452	505.15778	-99.48219	248.19649	308.77848	-133.49108	284.80648	198.35316	-255.68542	233.40433	173.87794	-329.65015	253.00619	86.28335	-177.52512	36.64099	645.59723	-272.08891	67.38909	486.34953	-157.86492	87.22741	316.58672	-171.2233	91.98845	122.07479	-222.24331	137.25891	77.66654	-285.67482	116.14175	61.22271	-108.56994
94	3.11	256.09798	1555.93323	13.66734	84.22879	1555.02533	28.37581	273.31757	1540.61584	-111.28493	53.96369	1554.90646	-69.35925	234.48561	1301.02417	-55.58587	92.22075	1282.08466	-38.59546	219.19636	1375.25284	-161.45039	74.24459	1368.63312	-133.61934	146.89827	1219.43771	-245.90427	179.16462	1235.31395	-9.19592	187.11025	1133.89999	27.48131	319.54975	1332.95288	-111.90476	369.1861	1140.10887	-216.3871	400.91366	1045.60013	-215.0395	386.8306	973.72444	-155.93493	327.07069	1008.67813	7.28684	398.35487	982.27409	10.22584	381.26476	1013.3709	70.14251	15.67904	1320.82596	-59.86625	-40.6981	1148.71475	-171.29227	-108.92575	1022.07962	-148.13744	-79.48823	994.24637	-38.85124	13.31946	1059.31335	69.20103	-52.18271	1058.87978	96.15612	-30.13291	1090.70236	124.23114	291.48746	926.58432	-86.89847	24.6751	920.35103	-76.81447	234.61189	978.03795	-256.99427	66.97095	1011.47583	-244.60043	294.09821	632.54944	-133.29251	285.30079	510.29446	-27.20757	244.78251	308.97049	-19.98103	284.4669	171.27464	-109.17624	232.88805	126.66769	-173.50027	258.21064	85.32866	-4.90863	36.32479	646.47751	-229.30128	64.41354	480.22118	-124.16243	86.12344	310.0584	-148.855	92.57333	120.60949	-216.33968	139.18773	79.96001	-282.27982	117.57669	60.65509	-107.87618
95	3.143	255.62441	1549.51614	65.55576	83.71519	1546.51108	81.95619	271.89985	1536.91971	-59.72584	52.65628	1547.93884	-15.79736	236.2838	1294.95605	-5.98826	93.68354	1274.42871	11.20163	217.82629	1370.25696	-109.70135	74.61256	1362.46078	-84.64547	147.49644	1212.16301	-194.85033	181.19469	1230.71289	42.71446	190.92012	1128.30322	76.41584	319.90564	1326.28113	-62.50749	363.14064	1132.27371	-170.14715	394.07627	1036.73347	-170.11282	388.52432	943.88924	-146.91975	354.94377	877.84653	8.33295	424.78241	860.65308	-7.86632	415.3867	849.56612	58.64305	17.4864	1312.64511	-8.7607	-46.45031	1137.58011	-115.66057	-110.80048	1012.68417	-84.65244	-93.26798	940.85312	1.82922	3.78799	939.67613	123.97823	-65.68137	921.8795	154.27048	-36.29941	928.39722	192.89577	294.68313	921.45912	-31.44725	27.2811	916.98448	-17.11132	235.08114	967.19841	-201.13619	64.2565	1003.51158	-187.93625	289.86452	624.21349	-73.43801	282.01483	504.75498	35.21464	245.31189	310.76799	84.25888	279.9424	154.30631	32.39487	223.9768	96.20608	-15.8264	263.00819	94.58842	157.55206	31.20883	645.90401	-181.30318	64.46374	474.8642	-88.16714	87.13241	305.51754	-125.59646	93.39252	121.65524	-207.39635	139.11267	85.90956	-277.85271	118.44067	60.26945	-105.6978
96	3.177	255.41357	1541.69296	118.91576	82.97635	1536.61987	130.74371	274.6681	1533.80234	-6.32625	54.49679	1541.47339	32.07325	238.35068	1290.26657	44.81945	94.64222	1270.51376	61.67174	223.01311	1357.99973	-64.22089	77.94129	1352.603	-37.14112	149.64215	1200.21622	-142.09542	182.56216	1227.24487	91.86937	191.03182	1127.22397	131.22912	322.91298	1315.71777	-11.31422	368.3662	1119.8568	-113.43789	387.74487	1028.51692	-130.93026	378.72746	934.65858	-141.73735	364.42387	814.90738	-22.97312	430.18349	806.44005	-53.92281	431.74915	772.6738	3.59939	17.32933	1307.01645	36.82879	-52.44599	1117.39983	-46.20038	-96.61985	993.08647	-14.1473	-93.71432	896.1879	34.84455	-17.5494	836.13144	147.98015	-91.11804	816.38443	163.89996	-65.69962	801.89346	203.84096	293.99754	911.43372	30.28516	27.17125	911.04767	45.6436	234.00675	953.32947	-137.56423	63.61609	995.75218	-127.23898	285.7741	611.46767	-13.36706	283.19111	491.34834	93.65083	243.33677	314.19111	176.24033	269.78531	149.29865	156.31817	209.40273	85.44813	122.89084	257.05246	111.69589	293.96385	30.74811	647.35626	-134.94813	66.22222	469.94686	-54.8624	87.87076	304.02283	-107.06766	96.11752	126.44795	-201.3098	143.50513	94.4317	-272.95107	118.48571	60.36045	-103.65393
97	3.21	258.75477	1536.36444	169.74165	86.29526	1533.57971	181.61165	278.08331	1522.38617	44.87563	57.9238	1534.10248	82.82272	242.01544	1281.68167	97.72604	97.86355	1261.8602	121.07002	218.64441	1353.35022	-7.99213	75.76278	1344.37164	22.78308	146.55586	1190.81932	-83.40087	185.06239	1221.84189	151.69667	193.93148	1121.30531	191.12362	324.42566	1308.94577	35.04673	348.42491	1128.04001	-95.89578	378.73116	1036.95724	-112.69598	369.30462	948.98819	-130.14293	355.72376	814.96712	-23.86421	420.4731	811.60416	-57.54946	421.98387	770.12436	-2.29561	12.76049	1296.94305	96.82611	-31.49012	1115.01266	-17.08561	-81.53812	988.55644	0.42096	-79.22965	891.353	48.54795	-15.95941	832.84821	172.57929	-89.342	807.67143	176.60488	-67.46766	793.9798	219.32951	293.18359	900.91553	95.29444	25.70518	900.7972	107.81942	236.44176	945.81337	-75.52808	66.66331	988.51128	-63.32761	285.51767	601.21742	47.59546	280.77805	480.43865	154.15031	235.17797	313.83036	251.36162	256.49408	147.49147	250.20016	195.60453	81.61818	223.24032	237.28394	121.60892	394.12376	31.53064	649.30244	-85.6591	62.31237	465.61813	-18.97915	84.5466	303.42367	-84.12396	93.01308	134.56888	-193.28306	140.38312	108.22703	-266.92108	116.15238	60.59538	-101.61185
98	3.243	261.28252	1532.90405	224.21709	88.75578	1532.33627	237.01881	279.97913	1518.85178	99.55441	60.16336	1532.94479	138.25961	241.12251	1280.16815	153.94468	96.89671	1260.87807	175.13248	222.48333	1349.16107	45.1103	78.77061	1342.70126	74.31942	149.44987	1186.66718	-27.07716	186.57787	1220.91835	208.24463	198.83644	1121.14426	249.76507	327.08427	1306.12488	91.65019	344.50485	1132.07123	-44.95684	368.06484	1045.92468	-68.63556	354.23962	955.13329	-86.25992	352.23259	820.47508	23.53588	411.06762	815.92484	-18.814	420.23556	773.50014	36.7604	20.95202	1297.8653	152.01497	-21.29473	1129.40025	29.2608	-77.21836	1002.43607	34.37293	-74.32646	903.39195	82.96799	-5.94456	845.16594	211.63719	-79.399	818.13789	213.78702	-52.68447	803.92319	260.4921	299.08098	895.60837	156.15061	30.75401	898.79608	171.02211	241.60534	940.37506	-12.98627	69.1503	984.9839	-1.24434	280.12209	593.45009	101.36649	276.01332	471.53961	205.46955	227.15761	305.84642	305.60722	243.04054	138.78221	303.4317	180.86246	74.67093	277.50662	221.57431	113.38993	448.79097	31.4465	650.35889	-25.34388	58.46392	463.71082	39.63386	79.60162	304.96941	-44.03521	85.06206	151.11183	-174.86292	130.38497	134.67955	-251.7275	111.49528	61.18365	-95.65452
